# xmcd CD database file
#
# Track frame offsets:
#	150
#	22400
#	43837
#	66062
#
# Disc length: 1164 seconds
#
# Revision: 0
# Processed by: cddbd v1.5PL3 Copyright (c) Steve Scherf et al.
# Submitted via: CDex 1.51
#
DISCID=36048a04
DTITLE=佐田真由美 - pray - discovery
DYEAR=2001
DGENRE=JPop
TTITLE0=pray
TTITLE1=discovery
TTITLE2=pray 〜Instrumental〜
TTITLE3=discovery 〜Instrumental〜
EXTD=YEAR: 2001
EXTT0=
EXTT1=
EXTT2=
EXTT3=
PLAYORDER=
